<svg width="310" height="45" viewBox="0 0 310 45" fill="none" xmlns="http://www.w3.org/2000/svg">
<path d="M18.0026 30.8704C16.6097 32.4947 14.2093 34.7896 10.4653 34.7896C5.76112 34.7896 2.88056 32.7346 2.88056 27.2873V12.8079H0V12.4736C4.5125 10.5621 8.83334 6.21411 11.137 3.39415H11.5697V10.037H17.5225V12.8079H11.5697V27.2382C11.5697 29.8655 13.1542 31.1083 15.4579 31.1083C16.1296 31.1083 17.1392 30.8685 17.8109 30.6305L18.0026 30.8704Z" fill="#666666"/>
<path d="M32.3522 34.4062V34.2154C34.7053 32.8781 34.9918 31.3482 34.9918 27.9087V17.3485C34.9918 14.5286 33.2631 13.3348 31.2478 13.3348C30.4319 13.3348 29.4242 13.4784 28.8948 13.6219V27.9087C28.8948 31.3482 29.1832 32.8781 31.5344 34.2154V34.4062H17.3745V34.2154C19.7275 32.8781 20.014 31.3482 20.014 27.9087V8.84142C20.014 4.63697 19.5339 3.58492 16.8944 2.3421V2.15133C21.071 1.76979 25.4886 0.861287 28.8967 0V13.1422C30.5286 11.2307 33.6009 9.46283 36.9615 9.46283C40.3222 9.46283 43.6828 11.4215 43.6828 17.3466V27.9068C43.6828 31.3463 43.9713 32.8763 46.3224 34.2135V34.4043H32.3522V34.4062Z" fill="#666666"/>
<path d="M67.5907 27.8124C65.8146 30.8704 62.934 34.9312 56.837 34.9312C49.7324 34.9312 45.7 29.7239 45.7 22.6504C45.7 15.5768 50.6451 9.46283 57.5088 9.46283C63.4615 9.46283 67.0613 12.568 67.0613 18.5895V21.3131H54.243C54.5314 27.429 57.2678 29.7711 60.7233 29.7711C63.268 29.7711 65.9569 28.8154 67.3953 27.6689L67.5869 27.8124H67.5907ZM59.765 16.5363C59.765 13.2385 59.3323 10.9927 57.2696 10.9927C54.4859 10.9927 54.2449 15.5466 54.2449 19.7511V19.9418L59.765 19.3544V16.5345V16.5363Z" fill="#666666"/>
<path d="M290.028 27.8124C288.252 30.8704 285.371 34.9313 279.274 34.9313C272.169 34.9313 268.137 29.7239 268.137 22.6504C268.137 15.5769 273.082 9.46286 279.946 9.46286C285.898 9.46286 289.498 12.568 289.498 18.5895V21.3131H276.68C276.968 27.429 279.705 29.7711 283.16 29.7711C285.705 29.7711 288.394 28.8154 289.832 27.6689L290.024 27.8124H290.028ZM282.202 16.5364C282.202 13.2385 281.769 10.9928 279.707 10.9928C276.923 10.9928 276.682 15.5466 276.682 19.7511V19.9419L282.202 19.3544V16.5345V16.5364Z" fill="currentColor"/>
<path d="M211.188 30.8704C209.795 32.4947 207.395 34.7896 203.651 34.7896C198.947 34.7896 196.066 32.7346 196.066 27.2874V12.8079H193.185V12.4736C197.698 10.5621 202.019 6.21414 204.322 3.39418H204.753V10.037H210.706V12.8079H204.753V27.2382C204.753 29.8655 206.338 31.1084 208.641 31.1084C209.313 31.1084 210.321 30.8685 210.994 30.6305L211.186 30.8704H211.188Z" fill="currentColor"/>
<path d="M211.141 34.2154C213.494 32.8782 213.78 31.3482 213.78 27.9088V18.3043C213.78 14.0998 213.3 13.0478 210.659 11.8068V11.6161C214.835 11.2345 219.059 10.326 222.469 9.46664V27.9107C222.469 31.3501 222.758 32.8801 225.109 34.2173V34.4081H211.139V34.2173L211.141 34.2154Z" fill="currentColor"/>
<path d="M213.636 4.44435C213.636 2.10414 215.556 0.145465 217.955 0.145465C220.353 0.145465 222.321 2.10414 222.321 4.44435C222.321 6.78456 220.353 8.79234 217.955 8.79234C215.556 8.79234 213.636 6.78644 213.636 4.44435Z" fill="currentColor"/>
<path d="M254.918 34.4062V34.2154C257.271 32.8782 257.558 31.3482 257.558 27.9088V17.3485C257.558 14.5286 255.446 13.3349 253.429 13.3349C252.516 13.3349 251.364 13.4784 250.884 13.6692C251.267 14.6721 251.459 15.8677 251.459 17.3485V27.9088C251.459 31.3482 251.747 32.8782 254.098 34.2154V34.4062H240.128V34.2154C242.481 32.8782 242.768 31.3482 242.768 27.9088V17.3485C242.768 14.5286 241.039 13.3349 239.024 13.3349C238.208 13.3349 237.2 13.4784 236.671 13.622V27.9088C236.671 31.3482 236.959 32.8782 239.31 34.2154V34.4062H225.34V34.2154C227.693 32.8782 227.98 31.3482 227.98 27.9088V18.3043C227.98 14.0998 227.5 13.0478 224.858 11.8068V11.6161C229.035 11.2345 233.259 10.326 236.669 9.46664V13.146C238.301 11.2345 241.373 9.46664 244.734 9.46664C247.278 9.46664 249.726 10.5187 250.831 13.4331C252.368 11.4744 255.968 9.46664 259.52 9.46664C263.072 9.46664 266.241 11.4253 266.241 17.3504V27.9107C266.241 31.3501 266.53 32.8801 268.881 34.2173V34.4081H254.911L254.918 34.4062Z" fill="currentColor"/>
<path d="M291.181 25.7574H291.421C294.254 30.3453 297.132 33.2125 299.63 33.2125C301.694 33.2125 303.47 32.1132 303.47 29.8202C303.47 24.4674 291.181 26.1881 291.181 17.6356C291.181 13.0497 295.886 9.46475 301.022 9.46475C303.375 9.46475 306.448 10.0862 308.08 10.6585V17.2994H307.888C304.863 13.3821 302.895 11.1835 300.542 11.1835C298.525 11.1835 297.037 12.33 297.037 13.86C297.037 18.7821 310 17.9227 310 26.6659C310 31.7789 304.719 34.9313 299.39 34.9313C295.982 34.9313 293.054 34.3099 291.517 33.832L291.181 25.7555V25.7574Z" fill="currentColor"/>
<path d="M111.042 32.1208C111.042 32.1208 108.353 32.1529 107.945 29.8637C107.668 28.3035 107.738 20.5746 107.738 17.29C107.738 13.3821 105.575 10.7472 101.763 9.93128C99.1061 9.36276 96.44 9.32309 93.7852 9.76318C92.5954 9.9615 90.6542 10.5357 89.4037 11.3668L89.472 11.5556C90.7092 11.3025 95.2824 10.5735 97.6013 12.8816C99.2598 14.5324 99.0662 16.1907 99.0662 20.1156C97.0795 20.3857 95.4267 20.6955 93.6258 21.2055C91.3544 21.8514 89.2082 22.741 87.5383 24.4976C85.58 26.5564 85.1075 30.0639 86.5383 32.2681C88.0127 34.5384 90.8439 35.2637 93.5271 34.8784C95.4855 34.597 97.0624 33.5714 98.3926 32.1472C98.6108 31.913 98.8347 31.6863 99.108 31.3993C99.1706 31.5957 99.1953 31.675 99.22 31.7543C99.9278 33.9907 101.262 34.9653 103.643 34.9728C106.308 34.9823 109.266 33.6752 111.044 32.3002V32.1151L111.042 32.1208ZM99.0662 30.7098C97.8366 31.3426 96.3792 31.301 95.3469 30.0129C94.8175 29.3499 94.5234 28.585 94.4114 27.7577C94.2217 26.3619 94.3488 24.9925 94.8536 23.6703C95.1344 22.9356 95.5538 22.2915 96.1933 21.808C96.903 21.2716 97.6924 21.1941 98.533 21.3906C98.6848 21.4264 98.8366 21.4661 98.9884 21.5058C99.0131 21.5114 99.034 21.5247 99.0662 21.5379V30.7117V30.7098Z" fill="currentColor"/>
<path d="M90.4322 19.7756C92.6353 19.7756 94.4228 17.9964 94.4228 15.8035C94.4228 13.6106 92.6372 11.8314 90.4322 11.8314C88.2271 11.8314 86.4415 13.6088 86.4415 15.8035C86.4415 17.9983 88.2271 19.7756 90.4322 19.7756Z" fill="currentColor"/>
<path d="M162.683 32.1208C162.683 32.1208 159.994 32.1529 159.586 29.8637C159.309 28.3035 159.38 20.5746 159.38 17.29C159.38 13.3821 157.216 10.7472 153.404 9.93128C150.747 9.36276 148.081 9.32309 145.427 9.76318C144.237 9.9615 142.296 10.5357 141.045 11.3668L141.113 11.5556C142.351 11.3025 146.924 10.5735 149.243 12.8816C150.901 14.5324 150.708 16.1907 150.708 20.1156C148.721 20.3857 147.068 20.6955 145.267 21.2055C142.996 21.8514 140.85 22.741 139.18 24.4976C137.221 26.5564 136.749 30.0639 138.18 32.2681C139.654 34.5384 142.485 35.2637 145.169 34.8784C147.127 34.597 148.704 33.5714 150.034 32.1472C150.252 31.913 150.476 31.6863 150.749 31.3993C150.812 31.5957 150.837 31.675 150.861 31.7543C151.569 33.9907 152.903 34.9653 155.285 34.9728C157.949 34.9823 160.907 33.6752 162.685 32.3002V32.1151L162.683 32.1208ZM150.708 30.7098C149.478 31.3426 148.021 31.301 146.988 30.0129C146.459 29.3499 146.165 28.585 146.053 27.7577C145.863 26.3619 145.99 24.9925 146.495 23.6703C146.776 22.9356 147.195 22.2915 147.835 21.808C148.544 21.2716 149.334 21.1941 150.174 21.3906C150.326 21.4264 150.478 21.4661 150.63 21.5058C150.654 21.5114 150.675 21.5247 150.708 21.5379V30.7117V30.7098Z" fill="currentColor"/>
<path d="M142.075 19.7756C144.279 19.7756 146.066 17.9964 146.066 15.8035C146.066 13.6106 144.28 11.8314 142.075 11.8314C139.87 11.8314 138.085 13.6088 138.085 15.8035C138.085 17.9983 139.87 19.7756 142.075 19.7756Z" fill="currentColor"/>
<path d="M109.18 43.9635V43.7727C111.533 42.4354 111.822 40.9055 111.822 37.466V18.3024C111.822 14.0979 111.342 13.0459 108.7 11.805V11.6142C112.877 11.2327 117.293 10.3242 120.703 9.46475V13.2877C121.76 12.1884 124.735 9.46475 128.048 9.46475C133.954 9.46475 137.121 14.4342 137.121 21.5058C137.121 32.8177 128.227 34.9804 122.623 34.9804C121.999 34.9804 120.655 34.8841 120.655 34.8841V37.4641C120.655 40.9055 120.991 42.3372 124.063 43.7708V43.9616H109.182L109.18 43.9635ZM120.703 32.2114C121.566 32.6893 122.19 32.7082 123.056 32.7082C126.473 32.7082 128.244 28.0655 128.244 22.5711C128.244 17.0766 126.394 13.3538 123.12 13.3538C121.744 13.3538 120.703 14.4266 120.703 14.4266V32.2114Z" fill="currentColor"/>
<path d="M176.426 34.4062V34.2154C178.779 32.8782 179.065 31.3483 179.065 27.9088V17.3486C179.065 14.5286 177.337 13.3349 175.321 13.3349C174.505 13.3349 173.498 13.4784 172.968 13.622V27.9088C172.968 31.3483 173.257 32.8782 175.608 34.2154V34.4062H161.638V34.2154C163.991 32.8782 164.277 31.3483 164.277 27.9088V18.3043C164.277 14.0998 163.797 13.0478 161.156 11.8069V11.6161C165.332 11.2345 169.557 10.326 172.967 9.46664V13.146C174.598 11.2345 177.671 9.46664 181.031 9.46664C184.392 9.46664 187.753 11.4253 187.753 17.3504V27.9107C187.753 31.3501 188.041 32.8801 190.392 34.2173V34.4081H176.422L176.426 34.4062Z" fill="currentColor"/>
<path d="M70.1069 44.1448C72.4106 42.7112 74.6669 38.7466 74.6669 33.5392V18.3024C74.6669 14.0979 74.1868 13.0478 71.5472 11.805V11.6142C75.7219 11.2327 80.1377 10.3242 83.5458 9.46475V29.7201C83.5458 38.8449 73.4676 43.191 70.2511 44.4338L70.1069 44.1467V44.1448Z" fill="currentColor"/>
<path d="M74.7143 4.44813C74.7143 2.10792 76.6347 0.149249 79.0332 0.149249C81.4337 0.149249 83.4015 2.10792 83.4015 4.44813C83.4015 6.78834 81.4337 8.79612 79.0332 8.79612C76.6328 8.79612 74.7143 6.79023 74.7143 4.44813Z" fill="#C8102E"/>
</svg>
